<?xml version="1.0" encoding="UTF-8" standalone="no"?>
        <svg 
    viewBox="46.03235294117647 -60.6 407.6590908944607 59.39999999999999"
    width="361.6267379532842"
    height="119.99999999999999"
   xmlns="http://www.w3.org/2000/svg"
   xmlns:svg="http://www.w3.org/2000/svg">
   <path d="M87.90-71.55L87.90-71.55Q89.40-71.55 90.15-71.10L90.15-71.10Q90.60-70.80 92.85-70.80L92.85-70.80L95.40-70.80Q96.30-70.50 96.75-69.52Q97.20-68.55 96.90-67.80L96.90-67.80Q95.10-66 92.10-65.10L92.10-65.10Q90.60-64.80 89.85-59.85L89.85-59.85Q88.65-55.05 87.90-53.10L87.90-53.10L87.15-49.35Q87.30-49.20 88.13-49.35Q88.95-49.50 90.15-49.80L90.15-49.80Q94.50-50.85 95.85-48.60L95.85-48.60Q97.05-46.95 93.90-46.35L93.90-46.35Q92.55-46.05 92.10-44.55L92.10-44.55Q92.10-43.50 90.90-42.30L90.90-42.30Q90.15-41.55 90.15-38.10L90.15-38.10L89.85-35.10L91.65-34.35Q95.70-32.40 102.90-22.35L102.90-22.35Q103.50-21.60 103.72-20.93Q103.95-20.25 103.65-19.80Q103.35-19.35 102.60-19.35L102.60-19.35Q100.50-19.35 93.60-26.85L93.60-26.85Q89.10-31.35 88.65-31.35L88.65-31.35L88.65-30.60Q88.65-30 86.55-23.25Q84.45-16.50 83.85-14.85L83.85-14.85Q82.95-13.05 81.90-13.05Q80.85-13.05 80.40-13.42Q79.95-13.80 79.95-15Q79.95-16.20 80.40-18.07Q80.85-19.95 81.90-23.10L81.90-23.10Q83.85-31.20 84.15-33.30L84.15-33.30Q85.35-38.70 86.85-41.85L86.85-41.85Q87.15-42.60 87.30-43.05Q87.45-43.50 87.15-43.80L87.15-43.80Q86.70-44.25 80.10-40.35L80.10-40.35Q75.75-37.50 73.65-40.05L73.65-40.05Q72.30-41.85 75.90-43.35L75.90-43.35Q76.65-43.65 77.70-44.48Q78.75-45.30 78.90-45.30L78.90-45.30Q79.65-46.05 79.35-48.30L79.35-48.30Q79.20-48.60 78.15-55.05L78.15-55.05L77.85-59.55L76.35-60.60Q73.05-63.45 75.90-65.10L75.90-65.10Q76.95-66.15 77.40-67.80L77.40-67.80Q77.70-69.45 78.08-69.90Q78.45-70.35 79.65-70.35L79.65-70.35Q82.35-70.35 82.35-68.85L82.35-68.85Q82.35-68.10 82.65-67.95Q82.95-67.80 84.60-68.10L84.60-68.10Q85.35-68.55 86.85-70.05L86.85-70.05Q87.45-71.55 87.90-71.55ZM85.65-62.10L85.65-62.10Q86.10-63.30 85.35-63.30L85.35-63.30Q83.55-63.30 83.10-62.10L83.10-62.10Q82.80-61.35 82.80-55.65Q82.80-49.95 83.10-49.35L83.10-49.35Q83.40-49.20 83.63-49.50Q83.85-49.80 84-50.77Q84.15-51.75 84.38-52.95Q84.60-54.15 84.90-56.55L84.90-56.55Q85.65-60.75 85.65-62.10ZM47.40-63.30L47.40-63.30Q48.30-64.50 50.85-63.60L50.85-63.60Q53.10-63 56.48-60.45Q59.85-57.90 59.85-56.85L59.85-56.85Q59.85-55.05 58.35-55.05L58.35-55.05Q57.30-55.05 53.40-57.60L53.40-57.60Q52.65-58.20 51.45-59.02Q50.25-59.85 49.50-60.38Q48.75-60.90 48.60-61.05L48.60-61.05Q46.35-62.25 47.40-63.30ZM55.65-46.80L55.65-46.80Q59.10-48.15 60.15-46.80L60.15-46.80Q60.90-46.05 60.90-45.60L60.90-45.60Q60.90-45.45 59.77-44.77Q58.65-44.10 56.77-43.27Q54.90-42.45 53.10-41.85L53.10-41.85Q48.90-40.50 47.85-40.35Q46.80-40.20 46.35-40.80L46.35-40.80Q45.45-42.15 47.10-43.80L47.10-43.80Q47.10-43.95 47.92-44.48Q48.75-45 48.90-45.30L48.90-45.30Q49.65-46.05 51.90-46.05L51.90-46.05Q52.20-46.20 53.63-46.35Q55.05-46.50 55.65-46.80ZM62.40-37.35L62.40-37.35Q64.95-39.30 64.95-37.65L64.95-37.65Q64.80-36.45 62.85-33.30L62.85-33.30Q61.20-31.35 60.15-28.35L60.15-28.35Q59.10-25.80 57.90-25.05L57.90-25.05Q55.20-23.70 54.60-25.35L54.60-25.35Q53.70-26.85 56.40-29.55L56.40-29.55Q56.55-29.85 57.38-31.13Q58.20-32.40 58.65-32.85L58.65-32.85Q60.45-35.70 62.40-37.35ZM183.15-119.40L182.70-119.40L183.90-119.40L183.15-119.40ZM211.50-119.10L211.20-119.10L212.40-119.10L212.55-119.10L211.95-119.10L211.50-119.10ZM220.20-86.40L220.20-86.40Q222-87.60 223.20-86.40L223.20-86.40Q223.65-86.10 223.65-84.15L223.65-84.15L223.20-82.35L224.70-82.65Q225.60-82.65 228.45-83.85L228.45-83.85Q232.05-84.90 232.95-83.40L232.95-83.40Q233.70-82.20 233.70-81.60L233.70-81.60Q233.70-80.10 228.15-78.90L228.15-78.90Q225.75-78.45 225.15-77.85L225.15-77.85Q224.40-77.10 224.40-74.85L224.40-74.85L223.95-71.85L225.45-71.85Q226.95-71.85 228.90-72.60L228.90-72.60Q230.55-72.90 231.45-72.60L231.45-72.60Q233.25-71.70 233.40-70.50Q233.55-69.30 231.90-68.40L231.90-68.40Q229.35-67.50 223.20-65.92Q217.05-64.35 215.70-64.35L215.70-64.35Q214.50-64.05 212.40-64.65L212.40-64.65Q211.65-65.85 211.65-66.15L211.65-66.15Q211.65-67.05 212.47-67.72Q213.30-68.40 213.90-68.40L213.90-68.40Q214.05-68.40 214.50-68.55Q214.95-68.70 215.77-68.85Q216.60-69 217.20-69.15L217.20-69.15Q219.90-70.20 219.90-71.10L219.90-71.10Q219.90-71.25 220.05-72Q220.20-72.75 220.20-72.90L220.20-72.90L220.20-75.60L219.90-77.10L217.20-77.10Q214.35-77.10 213.90-78.15L213.90-78.15Q213-79.20 213.90-80.10L213.90-80.10Q214.35-81 216.45-81.60L216.45-81.60Q219-82.20 219.38-82.50Q219.75-82.80 219.45-84.15L219.45-84.15Q219.15-85.35 220.20-86.40ZM217.65-60.60L217.65-60.60Q218.25-61.65 219.30-61.80Q220.35-61.95 220.95-61.35L220.95-61.35Q222.15-61.35 224.40-61.65L224.40-61.65Q228.90-62.40 231.15-60.15L231.15-60.15Q232.20-59.10 232.20-57.60L232.20-57.60Q232.20-55.20 229.65-52.35L229.65-52.35L228.45-50.10Q229.20-49.65 229.95-49.65L229.95-49.65Q232.20-49.65 232.65-48.90L232.65-48.90Q232.95-48 231.45-44.40L231.45-44.40L229.95-40.65Q230.10-40.50 230.70-40.50Q231.30-40.50 232.43-40.80Q233.55-41.10 234.90-41.40L234.90-41.40Q246.90-43.95 246.90-40.65L246.90-40.65Q246.90-38.70 244.65-37.65L244.65-37.65Q242.25-36 241.65-37.35L241.65-37.35Q240.90-37.80 240-37.65Q239.10-37.50 229.95-35.10L229.95-35.10Q212.70-30.15 210.45-32.40L210.45-32.40Q209.70-32.85 209.70-33.90L209.70-33.90Q210.30-35.70 214.95-36.60L214.95-36.60Q217.95-37.80 217.95-38.10L217.95-38.10Q217.95-38.55 217.20-41.85L217.20-41.85Q216.30-44.70 217.20-45.90L217.20-45.90Q218.10-47.40 216.90-47.40L216.90-47.40Q215.40-48.30 215.40-53.85L215.40-53.85Q215.40-58.35 217.65-60.60ZM226.95-56.85L226.95-56.85Q226.95-57.60 225.45-57.60L225.45-57.60Q224.10-57.60 222.75-56.25Q221.40-54.90 221.40-53.40L221.40-53.40Q221.40-52.65 221.55-52.57Q221.70-52.50 222.45-52.65L222.45-52.65Q224.70-52.95 226.13-54.30Q227.55-55.65 226.95-56.85ZM228.15-47.85L228.15-47.85L227.70-49.35Q227.55-49.35 227.18-49.20Q226.80-49.05 226.20-48.90Q225.60-48.75 225.15-48.60L225.15-48.60Q223.65-47.70 223.35-47.25Q223.05-46.80 222.45-45.15L222.45-45.15Q221.10-40.35 221.40-39.60L221.40-39.60Q221.85-37.95 223.95-38.40L223.95-38.40Q225.15-39 226.65-42.30Q228.15-45.60 228.15-47.85ZM211.20-24.90L211.20-24.90Q212.10-25.95 213.90-25.57Q215.70-25.20 216.90-23.85L216.90-23.85Q218.10-22.65 219.15-22.65L219.15-22.65Q222.30-22.65 224.40-20.85L224.40-20.85Q225.45-19.20 224.40-13.65L224.40-13.65Q223.20-8.70 220.65-6.60L220.65-6.60Q218.70-4.65 217.20-4.65L217.20-4.65Q215.85-4.65 213.90-6.60L213.90-6.60L212.40-7.65Q212.40-7.50 212.25-6.97Q212.10-6.45 211.95-5.63Q211.80-4.80 211.65-3.90L211.65-3.90Q211.05-1.05 210.15-0.15L210.15-0.15Q209.40 0.60 208.65 0.60L208.65 0.60Q207.30-0.15 207.30-1.88Q207.30-3.60 208.35-8.70L208.35-8.70Q208.35-9.30 208.43-9.75Q208.50-10.20 208.65-10.65L208.65-10.65Q210.15-16.65 210.15-17.10L210.15-17.10Q210.15-17.40 208.65-18.90L208.65-18.90Q206.40-21.15 209.40-22.65L209.40-22.65Q210.90-23.55 210.90-23.85L210.90-23.85Q210.90-24.60 211.20-24.90ZM220.20-17.40L220.20-17.40Q219.45-18.60 217.35-18.60Q215.25-18.60 214.65-17.40L214.65-17.40Q214.35-17.25 213.90-14.77Q213.45-12.30 213.45-11.85L213.45-11.85Q213.75-11.55 215.55-10.57Q217.35-9.60 217.65-9.60L217.65-9.60Q218.25-9.60 220.20-14.85L220.20-14.85Q220.80-17.10 220.20-17.40ZM236.40-23.40L236.40-23.40Q237.90-24.90 238.20-24.90L238.20-24.90Q243-24.90 245.70-23.85L245.70-23.85Q247.50-22.65 248.10-19.43Q248.70-16.20 247.65-13.65L247.65-13.65Q246.45-11.10 244.35-9Q242.25-6.90 240.90-6.90L240.90-6.90Q238.95-6.90 238.20-6.60L238.20-6.60Q236.10-5.70 235.20-6.60L235.20-6.60L234.45-6.90L234.45-12.90Q234.45-18.90 234.68-20.32Q234.90-21.75 236.40-23.40ZM243.45-20.40L243.45-20.40Q242.25-22.20 241.20-21.15L241.20-21.15Q240.45-19.95 239.63-16.20Q238.80-12.45 239.40-11.85L239.40-11.85Q239.55-11.55 240.52-12.45Q241.50-13.35 242.70-14.85L242.70-14.85Q244.95-18.30 243.45-20.40ZM382.05-84.15L382.05-84.15Q383.40-84.90 384.75-84.15L384.75-84.15Q385.95-83.70 384.75-81.45L384.75-81.45Q384-80.25 384.30-78.15L384.30-78.15Q385.05-76.95 385.05-74.70L385.05-74.70L385.05-72.45Q385.50-71.85 385.80-72.75L385.80-72.75Q385.95-73.35 386.55-75.45L386.55-75.45Q387.15-78 388.27-79.05Q389.40-80.10 392.25-80.70L392.25-80.70Q393.60-81 394.13-80.55Q394.65-80.10 394.05-78.90L394.05-78.90Q393.75-78.30 392.55-76.20L392.55-76.20Q391.50-74.70 393.75-73.65L393.75-73.65Q395.25-72.60 395.25-71.70L395.25-71.70Q395.55-70.80 394.65-70.50L394.65-70.50Q394.20-70.20 390.30-68.40L390.30-68.40Q388.80-67.50 387.30-66.90L387.30-66.90Q385.65-66 386.25-64.95L386.25-64.95Q386.70-63.90 385.80-63.45L385.80-63.45Q384.60-61.65 385.05-60.45L385.05-60.45Q385.05-59.70 389.25-57.45L389.25-57.45Q392.85-55.65 393.75-54.98Q394.65-54.30 395.25-52.95L395.25-52.95Q395.70-50.85 393.75-49.95L393.75-49.95Q393-49.50 392.55-49.50Q392.10-49.50 391.88-49.80Q391.65-50.10 391.50-51.15L391.50-51.15Q390.45-52.50 387.75-54.15L387.75-54.15L384.30-55.20Q384-52.95 383.55-50.40L383.55-50.40Q383.55-46.20 382.50-45.15L382.50-45.15Q382.05-44.25 381-44.70L381-44.70Q380.10-45.30 379.95-45.90Q379.80-46.50 379.80-49.65L379.80-49.65Q379.80-55.20 380.25-56.40L380.25-56.40L380.25-58.65Q380.25-58.80 379.13-57.75Q378-56.70 375.75-54.45L375.75-54.45Q370.80-49.95 370.05-50.40L370.05-50.40Q367.65-50.40 370.05-54.45L370.05-54.45Q371.40-56.55 374.25-59.63Q377.10-62.70 378.75-63.90L378.75-63.90Q380.55-64.35 380.55-65.40L380.55-65.40Q380.40-65.55 379.57-65.47Q378.75-65.40 377.18-65.10Q375.60-64.80 374.25-64.20L374.25-64.20L372-63.45L371.25-64.65Q370.50-65.10 370.50-66.45L370.50-66.45Q370.50-68.25 374.25-69.15L374.25-69.15L376.80-69.90Q377.70-69.90 375.30-72.90L375.30-72.90Q372.90-76.80 373.50-77.70Q374.10-78.60 375.07-78.52Q376.05-78.45 377.18-77.40Q378.30-76.35 379.05-74.70L379.05-74.70Q380.10-72.30 380.55-72.45L380.55-72.45Q380.85-72.60 380.55-73.95L380.55-73.95Q380.40-75.60 380.40-78.75Q380.40-81.90 380.55-82.95L380.55-82.95Q381.75-84.15 382.05-84.15ZM349.50-60.15L349.50-60.15Q355.65-61.35 357-60.15L357-60.15Q357.90-59.25 357-57.90L357-57.90Q355.80-56.70 352.05-56.40L352.05-56.40Q344.25-55.35 344.25-57.45L344.25-57.45Q344.25-58.35 345.15-58.80Q346.05-59.25 349.50-60.15ZM348.75-52.95L348.75-52.95Q349.35-53.85 350.63-53.85Q351.90-53.85 352.50-52.95L352.50-52.95Q352.80-52.65 352.80-51.90L352.80-51.90Q352.05-51 352.65-48.82Q353.25-46.65 354.30-46.65L354.30-46.65Q355.50-46.65 355.80-45.90L355.80-45.90Q356.55-45.15 355.80-43.95L355.80-43.95Q354.75-40.35 354.75-39.15L354.75-39.15Q353.10-28.50 354-27.90L354-27.90Q354.30-27.45 361.80-28.95L361.80-28.95Q362.55-29.10 363.68-29.40Q364.80-29.70 365.48-29.92Q366.15-30.15 366.30-30.15L366.30-30.15Q368.25-30.60 369.30-36.90L369.30-36.90Q369.90-40.20 370.73-41.48Q371.55-42.75 373.80-43.95L373.80-43.95Q375.75-44.85 376.50-44.40L376.50-44.40Q377.70-43.65 376.50-42.45L376.50-42.45Q375.75-42 375.60-41.63Q375.45-41.25 375.90-41.25Q376.35-41.25 377.25-41.40L377.25-41.40Q383.55-41.85 383.55-36.90L383.55-36.90Q383.85-32.85 382.65-29.32Q381.45-25.80 377.55-19.65L377.55-19.65Q377.10-18.75 376.05-16.43Q375-14.10 374.55-13.20L374.55-13.20Q372.30-9.15 370.80-9.15L370.80-9.15Q369.60-9.15 369.30-10.50Q369-11.85 370.05-13.20L370.05-13.20Q371.10-15 371.55-16.65L371.55-16.65Q373.05-18.75 373.05-19.65L373.05-19.65Q373.20-19.80 373.65-20.55Q374.10-21.30 374.55-22.05Q375-22.80 375.30-23.40L375.30-23.40L376.50-25.95L375-27.45Q372.30-29.40 371.25-27.90L371.25-27.90Q370.95-27.30 368.25-26.70L368.25-26.70Q366.90-26.70 361.05-24.90L361.05-24.90Q346.65-19.50 344.25-21.90L344.25-21.90Q341.10-24.30 346.50-25.95L346.50-25.95Q348.75-26.85 349.27-27.97Q349.80-29.10 349.80-33.90L349.80-33.90Q349.95-35.10 349.95-36.23Q349.95-37.35 349.95-38.02Q349.95-38.70 349.88-39.23Q349.80-39.75 349.80-39.90L349.80-39.90Q349.05-39.90 348-39.45L348-39.45Q345.90-38.40 342.75-39.45L342.75-39.45Q341.55-39.45 341.55-40.65Q341.55-41.85 342.15-42.30Q342.75-42.75 345.75-43.65L345.75-43.65Q349.05-44.25 349.05-45.15L349.05-45.15Q349.35-45.30 348.75-48.90L348.75-48.90Q348-52.20 348.75-52.95ZM379.50-36.90L379.50-36.90Q378.60-37.80 376.80-37.20L376.80-37.20Q374.25-36 374.25-34.20L374.25-34.20Q374.25-33.90 375.07-32.77Q375.90-31.65 376.88-30.82Q377.85-30 378-30.15L378-30.15Q378.75-30.45 379.43-33.23Q380.10-36 379.50-36.90ZM399.30-44.70L399.30-44.70Q401.40-46.80 403.50-44.70L403.50-44.70Q404.55-43.95 404.70-43.27Q404.85-42.60 404.25-40.95L404.25-40.95Q403.95-40.50 403.57-39.67Q403.20-38.85 403.05-38.40L403.05-38.40L403.05-37.20L405-37.20Q407.10-37.65 407.55-36.45L407.55-36.45Q407.85-35.85 407.32-34.95Q406.80-34.05 405.75-33.90L405.75-33.90Q403.80-33 403.50-27.45L403.50-27.45Q402.75-23.70 402.75-20.40L402.75-20.40Q402.30-18.90 402.30-10.65L402.30-10.65L402.30-3.45L401.25-3.15Q399.75-2.55 398.55-4.20L398.55-4.20Q396.75-6.90 398.25-22.95L398.25-22.95L398.55-28.65L396-28.65Q391.65-27.60 391.05-29.70L391.05-29.70Q390.75-30.45 390.75-34.95L390.75-34.95Q390.75-39.15 391.80-40.95L391.80-40.95L394.05-43.20Q396-45.15 397.80-44.40L397.80-44.40Q398.40-43.80 399.30-44.70ZM399-37.20L399-37.20Q399-39 398.48-39.30Q397.95-39.60 396.30-38.70L396.30-38.70Q395.25-37.95 395.25-35.40L395.25-35.40Q395.25-33.90 395.32-33.52Q395.40-33.15 395.70-32.92Q396-32.70 396.75-33.15L396.75-33.15Q399-34.20 399-37.20Z"/>
    </svg>
        