<svg width="296" height="296" version="1.1" xmlns="http://www.w3.org/2000/svg" xmlns:xlink="http://www.w3.org/1999/xlink"><path d="M199.21 59.89L199.21 59.89L198.62 61.37Q191.51 66.70 148.89 71.73L148.89 71.73L142.97 72.33L142.38 73.51L140.30 90.09Q165.76 85.94 173.16 90.97L173.16 90.97L175.82 93.64Q176.42 94.53 176.71 95.41L176.71 95.41Q176.42 96.60 174.34 98.08L174.34 98.08L102.12 106.07Q97.98 106.66 94.13 103.70L94.13 103.70Q92.35 102.52 91.46 100.74L91.46 100.74L92.94 99.26Q96.79 98.37 126.69 93.64L126.69 93.64L126.69 75.29Q123.73 75.29 103.01 78.25L103.01 78.25Q80.51 81.21 70.15 71.14L70.15 71.14Q70.15 69.37 73.41 67.89L73.41 67.89Q80.81 67.89 115.74 64.33L115.74 64.33Q121.06 64.04 125.21 63.74L125.21 63.74Q123.43 46.87 122.25 43.32Q121.06 39.77 118.99 35.92L118.99 35.92Q115.44 29.11 122.84 30.00L122.84 30.00Q132.61 31.18 144.74 38.58L144.74 38.58Q146.52 39.77 147.41 40.65L147.41 40.65Q147.41 43.61 144.45 57.23L144.45 57.23L143.86 59.60Q146.52 59.30 166.35 53.97L166.35 53.97Q187.37 48.35 196.25 55.45L196.25 55.45Q198.91 57.53 199.21 59.89ZM231.47 217.66L231.47 217.66Q232.95 222.99 226.74 228.61L226.74 228.61Q222.89 231.87 221.70 233.65L221.70 233.65Q216.67 241.93 214.01 251.11L214.01 251.11L221.11 256.44Q222.89 258.51 222.89 260.88L222.89 260.88L219.93 262.65Q179.97 263.84 163.98 265.91L163.98 265.91Q162.50 275.09 161.91 276.57L161.91 276.57L160.43 278.34Q152.74 274.49 150.66 259.10L150.66 259.10Q149.48 251.70 149.18 250.22L149.18 250.22Q143.86 226.25 140.01 218.55L140.01 218.55Q139.42 217.37 138.82 215.89L138.82 215.89Q138.82 212.93 140.30 212.04L140.30 212.04Q150.07 213.52 156.29 216.18L156.29 216.18L194.77 207.01Q198.62 205.82 202.17 204.34L202.17 204.34Q216.08 204.34 231.47 217.66ZM166.65 223.58L158.95 225.06L162.50 255.55L198.62 250.81Q203.94 232.17 203.94 222.99L203.94 222.99Q203.35 218.55 197.73 218.55L197.73 218.55Q191.22 218.55 166.65 223.58L166.65 223.58ZM253.38 185.99L253.38 185.99L251.60 187.17L158.95 188.06Q117.22 188.36 91.46 194.87L91.46 194.87Q94.72 196.35 97.98 199.31L97.98 199.31Q97.98 201.68 94.13 210.56L94.13 210.56Q93.54 211.74 93.24 212.63L93.24 212.63Q102.12 211.45 111.89 206.41L111.89 206.41Q124.02 207.60 134.38 217.07L134.38 217.07Q134.38 219.14 131.13 223.58L131.13 223.58L129.65 225.95Q128.46 228.02 122.25 252.00L122.25 252.00Q113.66 283.37 100.94 286.63L100.94 286.63Q99.16 287.22 97.38 287.22L97.38 287.22Q96.20 285.74 85.25 271.83L85.25 271.83Q82.29 267.69 79.62 265.02L79.62 265.02L79.62 263.84L94.42 265.32Q109.82 265.32 110.41 233.94L110.41 233.94Q110.70 227.73 110.11 222.10L110.11 222.10Q105.97 219.73 92.94 222.40L92.94 222.40Q91.17 222.69 89.69 222.99L89.69 222.99Q76.66 258.21 50.02 277.45L50.02 277.45Q40.85 283.97 31.08 287.81L31.08 287.81L25.75 287.81L25.75 286.93Q55.06 260.88 65.71 242.53L65.71 242.53Q70.45 234.53 73.41 226.54L73.41 226.54Q71.93 226.54 57.42 229.21L57.42 229.21Q44.10 231.87 38.18 223.58L38.18 223.58L40.55 221.21Q60.98 220.33 76.37 216.77L76.37 216.77Q78.44 210.26 78.14 200.49L78.14 200.49Q77.85 198.72 77.85 196.94L77.85 196.94Q76.37 196.94 54.17 201.68L54.17 201.68Q26.05 207.89 19.83 196.05L19.83 196.05Q19.24 195.17 18.94 193.98L18.94 193.98L19.83 192.80L95.31 185.99L95.31 184.51Q87.62 175.93 80.22 163.79L80.22 163.79Q79.62 162.61 79.33 162.01L79.33 162.01Q78.44 159.94 79.03 158.46L79.03 158.46Q79.33 157.28 80.51 156.09L80.51 156.09Q87.91 156.09 99.75 165.27L99.75 165.27Q104.49 168.82 106.56 172.37L106.56 172.37Q106.56 179.48 105.38 184.51L105.38 184.51L149.18 180.37Q158.95 164.68 158.95 148.69L158.95 148.69Q138.53 148.69 106.56 151.95L106.56 151.95L105.67 157.87Q103.30 157.87 98.86 154.61L98.86 154.61L91.46 137.45L81.40 120.28Q83.77 117.02 96.79 118.21L96.79 118.21Q125.80 118.21 162.50 107.85L162.50 107.85Q174.05 110.21 185.30 122.35L185.30 122.35L185.89 123.83Q185.89 125.90 183.52 129.16L183.52 129.16Q178.49 130.34 171.68 138.63L171.68 138.63Q177.01 142.48 177.01 145.73L177.01 145.73L175.82 147.21L164.87 148.10Q172.86 150.77 174.94 160.24L174.94 160.24Q175.23 161.13 175.23 162.01L175.23 162.01Q166.94 168.82 159.25 178.29L159.25 178.29L164.87 178.29L221.70 169.71Q230.58 168.23 242.13 173.56L242.13 173.56Q253.67 178.59 253.38 185.99ZM161.32 122.65L161.32 122.65Q160.14 119.69 154.22 119.98L154.22 119.98L153.03 119.98L100.64 126.49L105.08 143.66Q132.31 141.00 157.18 136.56L157.18 136.56Q159.84 129.75 161.32 122.65Z" stroke="#000" fill="black" /></svg>