<svg width="296" height="296" version="1.1" xmlns="http://www.w3.org/2000/svg" xmlns:xlink="http://www.w3.org/1999/xlink"><path d="M252.19 136.36L252.19 136.36Q252.19 141.10 248.64 141.40L248.64 141.40Q184.70 141.40 140.30 147.61L140.30 147.61Q118.70 150.87 106.56 153.83L106.56 153.83L91.76 157.38Q84.95 158.56 79.03 154.12L79.03 154.12Q75.48 151.76 74 148.20L74 148.20L74.59 147.61L121.36 141.99L119.29 102.03Q110.11 103.80 101.53 102.32L101.53 102.32Q93.54 100.55 89.39 95.81L89.39 95.81Q93.54 92.85 118.40 90.78L118.40 90.78Q118.40 68.88 108.04 45.79L108.04 45.79Q108.04 41.64 111.30 40.46L111.30 40.46Q123.73 42.53 133.79 52.89L133.79 52.89L133.20 87.52Q156.58 84.86 167.83 80.12L167.83 80.12Q171.09 78.64 171.38 77.46L171.38 77.46L173.75 31.88Q174.05 28.62 168.13 17.37L168.13 17.37L167.54 16.19Q167.24 8.20 178.49 11.75L178.49 11.75Q189.74 15.00 195.06 22.40L195.06 22.40Q196.84 24.77 196.84 27.14L196.84 27.14Q196.54 29.21 192.70 41.05L192.70 41.05L192.10 42.83Q188.26 56.15 185.59 73.91L185.59 73.91Q201.87 69.76 206.02 69.76L206.02 69.76Q214.01 70.06 219.34 75.68L219.34 75.68Q219.34 79.53 216.38 80.12L216.38 80.12L185 88.41L183.22 90.48L176.12 133.70L208.68 128.37Q208.98 128.37 209.27 128.08L209.27 128.08Q229.10 124.23 237.39 126.60L237.39 126.60Q245.68 128.67 252.19 136.36ZM163.69 135.48L169.61 92.26L134.09 99.36L133.79 99.36L133.79 139.62L163.69 135.48ZM69.86 69.17L69.86 69.17Q61.27 63.55 48.25 50.52L48.25 50.52Q41.14 43.42 41.14 41.05L41.14 41.05Q41.14 40.46 41.74 38.68L41.74 38.68Q47.66 35.72 65.42 42.53L65.42 42.53Q72.52 45.49 74.59 47.56L74.59 47.56Q80.22 52.89 79.62 62.66L79.62 62.66L78.14 67.40Q77.26 69.17 69.86 69.17ZM219.63 228.42L219.63 228.42Q217.26 230.49 211.94 230.49L211.94 230.49Q206.90 225.16 196.54 209.48L196.54 209.48Q195.66 208.29 195.06 207.11L195.06 207.11L168.13 169.81L168.42 165.08Q169.31 162.71 171.68 163.00L171.68 163.00L202.46 185.20Q227.03 205.04 219.93 226.94L219.93 226.94Q219.93 227.83 219.63 228.42ZM47.06 120.38L47.06 120.38Q39.07 117.72 28.71 106.17L28.71 106.17Q21.90 98.48 21.90 94.04L21.90 94.04Q24.57 92.56 30.19 93.15L30.19 93.15Q46.47 99.07 50.91 103.21L50.91 103.21L53.87 107.06Q55.06 109.72 55.06 112.68L55.06 112.68Q55.06 116.24 53.87 118.01L53.87 118.01Q52.39 120.38 47.06 120.38ZM136.16 181.36L136.16 181.36Q97.09 218.36 79.33 222.20L79.33 222.20Q74 223.09 70.15 221.61L70.15 221.61Q100.34 199.12 110.70 182.84L110.70 182.84Q112.48 179.58 113.37 176.92L113.37 176.92Q115.14 170.70 115.14 165.08L115.14 165.08Q116.92 163.30 121.66 164.48L121.66 164.48Q134.38 170.40 136.16 175.73L136.16 175.73Q137.05 178.40 136.16 181.36ZM68.38 132.22L68.38 136.96L45.29 198.52Q44.70 199.71 40.55 217.17L40.55 217.17Q39.66 220.43 38.78 222.50L38.78 222.50Q38.18 223.98 34.04 223.98L34.04 223.98Q24.57 218.36 21.02 204.44L21.02 204.44Q20.13 200.89 20.13 197.64L20.13 197.64Q20.13 194.97 26.34 190.24L26.34 190.24Q29.01 188.16 29.90 186.68L29.90 186.68L65.71 132.81L68.38 132.22Z" stroke="#000" fill="black" /></svg>