<svg width="296" height="296" version="1.1" xmlns="http://www.w3.org/2000/svg" xmlns:xlink="http://www.w3.org/1999/xlink"><path d="M209.27 48.28L176.12 67.82L174.34 67.82L174.34 63.97L187.66 48.88Q193.88 40.59 193.88 32.60L193.88 32.60Q194.77 30.53 200.69 31.71L200.69 31.71Q206.90 34.37 211.34 40.29L211.34 40.29Q213.12 42.66 213.12 44.14L213.12 44.14Q213.12 46.51 209.27 48.28L209.27 48.28ZM259.59 125.24L260.78 127.32Q252.78 133.53 224.96 134.72L224.96 134.72Q223.18 134.72 221.70 134.72L221.70 134.72Q215.49 134.72 214.01 134.42L214.01 134.42Q206.31 132.94 168.72 96.24L168.72 96.24Q165.17 92.69 163.69 91.20L163.69 91.20Q161.91 99.49 163.39 121.99L163.39 121.99Q164.28 137.38 161.91 146.56L161.91 146.56Q157.47 152.77 152.74 141.52L152.74 141.52Q150.66 136.20 150.66 133.53L150.66 133.53L151.85 124.36Q152.44 117.25 152.44 103.34L152.44 103.34Q137.05 129.98 113.37 140.93L113.37 140.93Q105.97 144.48 102.71 143.89L102.71 143.89L101.53 143.30Q133.50 118.44 143.26 97.72L143.26 97.72Q143.86 96.53 144.15 95.35L144.15 95.35Q140.01 95.35 127.58 100.38Q115.14 105.41 108.04 99.20L108.04 99.20Q107.45 98.31 106.56 97.72L106.56 97.72Q106.56 96.83 108.63 95.35L108.63 95.35Q129.06 91.50 152.74 85.28L152.74 85.28L154.22 84.40L152.44 52.43Q150.96 40.88 145.93 33.48L145.93 33.48Q145.93 29.64 150.66 29.04L150.66 29.04Q157.18 28.45 168.42 37.33L168.42 37.33Q169.90 38.52 171.09 39.70L171.09 39.70Q171.09 41.77 167.83 50.65L167.83 50.65Q163.69 64.27 163.69 82.03L163.69 82.03Q165.46 81.73 184.70 76.41L184.70 76.41Q205.42 70.78 216.08 80.25L216.08 80.25Q216.08 82.62 213.12 84.40L213.12 84.40Q191.81 86.17 171.68 89.72L171.68 89.72Q199.80 109.26 226.14 116.96L226.14 116.96Q234.73 119.32 259.59 125.24L259.59 125.24ZM137.94 77.00L137.94 77.00L133.20 76.41Q117.51 62.49 115.14 59.24L115.14 59.24Q114.55 58.35 114.26 57.76L114.26 57.76Q113.07 55.98 113.66 54.80L113.66 54.80Q114.26 54.20 115.14 53.91L115.14 53.91Q131.72 57.46 136.16 61.60L136.16 61.60L139.12 65.45Q139.71 66.93 140.01 68.71L140.01 68.71L139.42 74.04Q139.12 75.81 137.94 77.00ZM254.26 195.10L254.26 195.10L253.67 196.28L250.42 198.06Q217.26 198.06 203.94 200.72L203.94 200.72Q203.94 252.52 202.46 267.03L202.46 267.03Q200.69 283.31 197.14 285.68L197.14 285.68Q194.77 285.68 192.99 282.13L192.99 282.13Q190.62 263.18 191.22 214.93L191.22 214.93Q191.51 208.13 191.51 203.09L191.51 203.09Q179.08 203.09 159.84 212.86L159.84 212.86Q155.10 212.86 152.44 208.72L152.44 208.72Q150.37 205.16 155.99 199.24L155.99 199.24Q158.66 196.28 159.25 194.51L159.25 194.51Q163.39 189.77 159.25 176.16L159.25 176.16Q158.95 174.68 158.66 174.08L158.66 174.08Q162.50 170.53 172.27 177.34L172.27 177.34Q175.82 179.71 175.82 180.89L175.82 180.89Q175.82 181.78 171.38 189.77L171.38 189.77Q167.54 196.58 170.20 198.95L170.20 198.95L191.51 194.51L191.81 167.28L175.23 167.57Q169.02 166.69 166.35 164.02L166.35 164.02L167.83 162.54L190.33 158.99L190.62 158.99Q192.70 155.44 187.66 145.67L187.66 145.67Q184.11 138.27 188.26 136.79L188.26 136.79Q200.39 136.79 207.50 145.96L207.50 145.96L206.31 153.66L206.31 153.96L223.18 150.70Q229.10 150.40 232.66 153.96L232.66 153.96Q232.36 158.10 207.20 163.43L207.20 163.43Q206.02 163.72 205.42 164.02L205.42 164.02L203.94 191.55L229.40 186.22Q241.83 184.74 251.60 192.14L251.60 192.14Q253.67 193.62 254.26 195.10ZM99.16 64.56L99.16 64.56L98.27 68.12L68.97 77.88L74.89 83.80L74 121.10L74 121.40Q79.92 119.62 86.43 120.51L86.43 120.51Q91.76 121.10 95.02 123.47L95.02 123.47Q95.02 128.50 76.37 134.42L76.37 134.42Q74.89 135.01 74 135.31L74 135.31L72.22 179.71L73.70 179.71L91.76 170.53L94.13 170.83Q92.94 175.86 84.95 182.08L84.95 182.08L48.54 207.53Q39.66 214.34 33.45 221.15L33.45 221.15Q27.82 221.15 13.32 215.23L13.32 215.23Q11.54 213.45 11.54 208.72L11.54 208.72Q13.32 207.24 21.31 205.76L21.31 205.76Q23.38 205.46 24.86 204.57L24.86 204.57L60.68 186.52L61.27 140.64L43.81 143.30Q36.70 143.60 31.67 140.04L31.67 140.04Q32.26 136.79 59.50 129.09L59.50 129.09Q60.38 128.80 60.68 128.50L60.68 128.50L60.98 99.79Q60.09 89.43 57.13 81.44L57.13 81.44Q42.03 81.44 37.59 79.36L37.59 79.36Q35.52 78.48 34.04 77.29L34.04 77.29Q34.34 76.11 37 74.04L37 74.04Q50.32 72.26 71.63 64.27L71.63 64.27Q81.70 60.42 83.18 60.13L83.18 60.13Q88.21 59.24 93.83 61.31L93.83 61.31Q97.38 62.49 99.16 64.56ZM154.81 174.68L155.70 175.86Q155.70 178.23 150.96 182.96L150.96 182.96L149.18 184.74Q128.17 216.41 118.99 227.07L118.99 227.07Q93.83 256.08 70.45 256.08L70.45 256.08L70.45 255.19Q102.71 234.76 122.25 207.83L122.25 207.83Q132.02 194.51 135.86 182.37L135.86 182.37Q136.46 180.89 136.46 177.34L136.46 177.34Q130.54 175.56 117.81 176.45L117.81 176.45L105.97 188.29Q122.84 192.73 122.84 201.61L122.84 201.61Q122.84 204.28 121.06 205.46L121.06 205.46Q115.14 205.46 107.15 196.88L107.15 196.88L102.42 192.14Q89.98 201.32 85.84 203.09L85.84 203.09Q82.29 204.57 79.03 204.57L79.03 204.57L102.42 179.12Q115.74 163.43 118.40 149.22L118.40 149.22Q121.36 148.04 127.87 149.22L127.87 149.22Q134.09 150.70 134.09 153.37L134.09 153.37Q134.09 155.73 121.95 170.83L121.95 170.83Q124.32 170.83 137.34 168.46L137.34 168.46Q147.41 166.69 154.81 174.68L154.81 174.68Z" stroke="#000" fill="black" /></svg>